<svg width="742" height="254" viewBox="0 0 742 254" fill="none" xmlns="http://www.w3.org/2000/svg">
<path d="M75.9211 204.8C67.8369 204.8 60.4557 202.865 53.7774 198.994C47.2749 195.123 42.0905 190.021 38.2241 183.687H27.4159C24.2526 183.687 22.0558 184.302 20.8256 185.534C19.5954 186.766 18.9803 188.965 18.9803 192.132V251.777L16.8713 253.889H2.10892L0 251.777V187.909C0 171.019 8.43567 162.573 25.307 162.573H29.5249L31.6338 160.462C31.6338 152.192 33.5669 144.715 37.4333 138.029C41.4754 131.343 46.8356 126.065 53.5138 122.194C60.3678 118.147 67.8369 116.124 75.9211 116.124C84.181 116.124 91.6501 118.147 98.3283 122.194C105.007 126.065 110.279 131.343 114.145 138.029C118.187 144.715 120.208 152.192 120.208 160.462L122.317 162.573H124.426L126.535 164.948V181.575L124.426 183.687H113.618C109.752 190.021 104.479 195.123 97.8011 198.994C91.2986 202.865 84.0052 204.8 75.9211 204.8ZM51.6685 160.462C51.6685 166.444 53.9532 171.81 58.5225 176.561C63.0918 181.311 68.8913 183.687 75.9211 183.687C83.1265 183.687 88.9261 181.311 93.3196 176.561C97.889 171.81 100.174 166.444 100.174 160.462C100.174 154.304 97.889 148.937 93.3196 144.363C88.9261 139.612 83.1265 137.237 75.9211 137.237C68.8913 137.237 63.0918 139.612 58.5225 144.363C53.9532 148.937 51.6685 154.304 51.6685 160.462Z" fill="white"/>
<path d="M141.223 183.687L139.114 181.575V147.794L141.223 145.682H184.456L186.565 143.571V105.567L188.674 103.456H218.199L220.308 105.567V143.571L222.417 145.682H263.541L265.65 148.058V181.575L263.541 183.687H141.223ZM180.502 238.581C175.23 238.581 170.748 236.734 167.058 233.039C163.367 229.344 161.522 224.858 161.522 219.579C161.522 214.301 163.367 209.814 167.058 206.12C170.748 202.425 175.23 200.577 180.502 200.577C185.774 200.577 190.256 202.425 193.946 206.12C197.637 209.814 199.482 214.301 199.482 219.579C199.482 224.858 197.637 229.344 193.946 233.039C190.256 236.734 185.774 238.581 180.502 238.581ZM226.898 238.581C221.626 238.581 217.144 236.734 213.454 233.039C209.763 229.344 207.918 224.858 207.918 219.579C207.918 214.301 209.763 209.814 213.454 206.12C217.144 202.425 221.626 200.577 226.898 200.577C232.17 200.577 236.652 202.425 240.343 206.12C244.033 209.814 245.878 214.301 245.878 219.579C245.878 224.858 244.033 229.344 240.343 233.039C236.652 236.734 232.17 238.581 226.898 238.581Z" fill="white"/>
<path d="M352.041 158.351C352.041 165.74 350.635 171.81 347.823 176.561C345.011 181.311 339.388 183.687 330.952 183.687H278.229L276.12 181.575V164.685L278.229 162.573H322.516C326.734 162.573 329.546 161.869 330.952 160.462C332.358 159.054 333.061 156.239 333.061 152.016V147.794L330.952 145.682H314.081C297.209 145.682 288.773 137.237 288.773 120.346V99.233C288.773 82.3423 297.209 73.8969 314.081 73.8969H371.021C387.893 73.8969 396.328 82.3423 396.328 99.233V120.346C396.328 137.237 387.893 145.682 371.021 145.682H354.15L352.041 147.794V158.351ZM307.754 116.124C307.754 119.291 308.369 121.49 309.599 122.722C310.829 123.953 313.026 124.569 316.189 124.569H330.952L333.061 122.458V97.1216L330.952 95.0103H316.189C313.026 95.0103 310.829 95.6261 309.599 96.8577C308.369 98.0893 307.754 100.289 307.754 103.456V116.124ZM352.041 122.458L354.15 124.569H368.912C372.076 124.569 374.273 123.953 375.503 122.722C376.733 121.49 377.348 119.291 377.348 116.124V103.456C377.348 100.289 376.733 98.0893 375.503 96.8577C374.273 95.6261 372.076 95.0103 368.912 95.0103H354.15L352.041 97.1216V122.458Z" fill="white"/>
<path d="M413.109 185.798L411 183.687V2.11134L413.109 0H442.634L444.743 2.11134V183.687L442.634 185.798H413.109Z" fill="white"/>
<path d="M444.743 251.249L442.634 249.138V232.247L444.743 230.136H467.941C474.268 230.136 478.661 228.904 481.122 226.441C483.582 223.978 484.812 219.579 484.812 213.245V135.126L486.921 133.014H501.683L503.792 135.126V160.462L505.901 162.573H567.06L569.169 164.948V181.575L567.06 183.687H505.901L503.792 185.798V217.468C503.792 230.136 501.332 238.933 496.411 243.86C491.49 248.786 482.703 251.249 470.05 251.249H444.743Z" fill="white"/>
<path d="M583.857 183.687L581.748 181.575V164.685L583.857 162.573H645.016C649.234 162.573 652.045 161.869 653.451 160.462C654.857 159.054 655.56 156.239 655.56 152.016V124.569L657.669 122.458H672.432L674.541 124.569V158.351C674.541 165.74 673.135 171.81 670.323 176.561C667.511 181.311 661.887 183.687 653.451 183.687H583.857ZM624.19 241.748C618.039 241.748 612.679 239.461 608.11 234.887C603.716 230.488 601.519 225.21 601.519 219.052C601.519 212.893 603.716 207.703 608.11 203.48C612.679 199.258 618.039 197.146 624.19 197.146C630.341 197.146 635.613 199.258 640.007 203.48C644.401 207.703 646.598 212.893 646.598 219.052C646.598 225.21 644.401 230.488 640.007 234.887C635.613 239.461 630.341 241.748 624.19 241.748Z" fill="white"/>
<path d="M709.563 187.909L707.454 185.798V4.22269L709.563 2.11135H739.088L741.197 4.22269V185.798L739.088 187.909H709.563ZM705.609 239.637L703.5 237.526V229.344L705.609 227.233H709.299L711.408 225.122V218.788C711.408 214.213 712.287 210.606 714.045 207.967C715.802 205.328 719.229 204.008 724.326 204.008H734.079L736.188 206.12V215.093L734.079 217.204H726.962C724.326 217.204 723.008 218.436 723.008 220.899V225.122L725.116 227.233H739.352L741.461 229.344V237.526L739.352 239.637H705.609Z" fill="white"/>
</svg>
