<svg xmlns="http://www.w3.org/2000/svg" shape-rendering="geometricPrecision" text-rendering="geometricPrecision" image-rendering="optimizeQuality" fill-rule="evenodd" clip-rule="evenodd" viewBox="0 0 512 512"><path d="M256 0c141.385 0 256 114.615 256 256S397.385 512 256 512 0 397.385 0 256 114.615 0 256 0zm152.754 275.305c-1.28 22.893-20.388 40.702-43.312 40.385h-104.11c-4.769-.049-8.617-3.917-8.643-8.681V194.912a9.55 9.55 0 015.75-9.128s9.576-6.641 29.746-6.641a68.235 68.235 0 0135.005 9.619 69.252 69.252 0 0132.592 45.14 40.209 40.209 0 0111.043-1.504 41.687 41.687 0 0130.076 12.554 41.679 41.679 0 0111.859 30.356l-.006-.003zm-169.058-73.306c3.139 38.02 5.42 72.698 0 110.594a3.38 3.38 0 01-6.721 0c-5.055-37.575-2.854-72.903 0-110.594a3.368 3.368 0 011.567-3.234 3.404 3.404 0 013.594 0 3.38 3.38 0 011.56 3.234zm-21.067 110.632a3.538 3.538 0 01-3.501 3.01 3.54 3.54 0 01-3.505-3.01 422.645 422.645 0 010-97.587 3.546 3.546 0 013.524-3.17 3.553 3.553 0 013.526 3.17 379.705 379.705 0 01-.045 97.587h.001zm-21.11-100.889c3.42 34.839 4.976 66.052-.036 100.808a3.386 3.386 0 01-3.382 3.382 3.386 3.386 0 01-3.382-3.382c-4.85-34.31-3.222-66.417 0-100.808a3.41 3.41 0 013.401-3.045 3.409 3.409 0 013.399 3.045zm-21.14 100.932a3.472 3.472 0 01-3.449 3.084 3.456 3.456 0 01-3.439-3.084 356.957 356.957 0 010-91.113 3.505 3.505 0 017.008 0 332.927 332.927 0 01-.125 91.113h.005zm-21.115-68.333c5.342 23.626 2.936 44.496-.199 68.575a3.306 3.306 0 01-3.264 2.785 3.303 3.303 0 01-3.257-2.785c-2.854-23.751-5.218-45.11-.205-68.582a3.464 3.464 0 116.928.004l-.003.003zm-21.065-3.588c4.893 24.204 3.303 44.7-.124 68.987-.404 3.589-6.555 3.625-6.883 0-3.097-23.921-4.563-45.029-.125-68.987a3.596 3.596 0 013.569-3.204 3.578 3.578 0 013.563 3.204zm-21.265 11.734c5.131 16.055 3.377 29.1-.204 45.556a3.341 3.341 0 01-3.321 2.974 3.352 3.352 0 01-3.328-2.974c-3.096-16.134-4.352-29.459-.279-45.556a3.575 3.575 0 013.562-3.204 3.578 3.578 0 013.563 3.204h.007z"/></svg>